<svg width="12" height="11" viewBox="0 0 12 11" fill="none" xmlns="http://www.w3.org/2000/svg">
<path d="M9.92234 11.0028L6.18964 7.27011C5.90347 7.48147 5.57217 7.6497 5.19575 7.77482C4.81933 7.89994 4.41449 7.9625 3.98121 7.9625C2.87203 7.9625 1.93119 7.57625 1.1587 6.80376C0.386203 6.03126 -4.5374e-05 5.09042 -4.5374e-05 3.98124C-4.5374e-05 2.87206 0.386203 1.93122 1.1587 1.15873C1.93119 0.38623 2.87203 -1.77622e-05 3.98121 -1.77622e-05C5.0904 -1.77622e-05 6.03123 0.38623 6.80373 1.15873C7.57623 1.93122 7.96247 2.87206 7.96247 3.98124C7.96247 4.42001 7.89991 4.82486 7.77479 5.19578C7.64967 5.5667 7.48144 5.8925 7.27009 6.17318L11.011 9.92237L9.92234 11.0028ZM3.98121 6.41665C4.66092 6.41665 5.23675 6.18067 5.7087 5.70873C6.18065 5.23678 6.41662 4.66095 6.41662 3.98124C6.41662 3.30153 6.18065 2.72571 5.7087 2.25376C5.23675 1.78181 4.66092 1.54584 3.98121 1.54584C3.30151 1.54584 2.72568 1.78181 2.25373 2.25376C1.78178 2.72571 1.54581 3.30153 1.54581 3.98124C1.54581 4.66095 1.78178 5.23678 2.25373 5.70873C2.72568 6.18067 3.30151 6.41665 3.98121 6.41665Z" fill="#8C7164"/>
</svg>
